<mxfile host="drawio.codio.com" modified="2025-06-05T15:30:26.663Z" agent="Mozilla/5.0 (Windows NT 10.0; Win64; x64) AppleWebKit/537.36 (KHTML, like Gecko) Chrome/137.0.0.0 Safari/537.36" version="24.0.4" etag="ELiCV0xoyZHAQN3STl1d" type="codio">
  <diagram id="jIIoTNyCSCS1dAtFMV65" name="Page-1">
    <mxGraphModel dx="979" dy="582" grid="1" gridSize="10" guides="1" tooltips="1" connect="1" arrows="1" fold="1" page="1" pageScale="1" pageWidth="850" pageHeight="1100" math="0" shadow="0">
      <root>
        <mxCell id="0" />
        <mxCell id="1" parent="0" />
        <mxCell id="tBvIUzbLb-7MjJB4aprN-1" value="&lt;p style=&quot;margin:0px;margin-top:4px;text-align:center;&quot;&gt;&lt;i&gt;Snake&lt;/i&gt;&lt;/p&gt;&lt;hr size=&quot;1&quot; style=&quot;border-style:solid;&quot;&gt;&lt;p style=&quot;margin:0px;margin-left:4px;&quot;&gt;- JSON_MAPPER: ObjectMapper&lt;br&gt;- HANDLER: Handler&lt;/p&gt;&lt;p style=&quot;margin:0px;margin-left:4px;&quot;&gt;- LOG: Logger&lt;/p&gt;&lt;hr size=&quot;1&quot; style=&quot;border-style:solid;&quot;&gt;&lt;p style=&quot;margin:0px;margin-left:4px;&quot;&gt;+ main(args: String[]): void&lt;br&gt;&lt;/p&gt;" style="verticalAlign=top;align=left;overflow=fill;html=1;whiteSpace=wrap;" vertex="1" parent="1">
          <mxGeometry x="330" y="230" width="190" height="140" as="geometry" />
        </mxCell>
        <mxCell id="tBvIUzbLb-7MjJB4aprN-2" value="&lt;p style=&quot;margin:0px;margin-top:4px;text-align:center;&quot;&gt;&lt;i&gt;Handler&lt;/i&gt;&lt;/p&gt;&lt;hr size=&quot;1&quot; style=&quot;border-style:solid;&quot;&gt;&lt;p style=&quot;margin:0px;margin-left:4px;&quot;&gt;- EMPTY : Map&amp;lt;String, String&amp;gt;&lt;br&gt;&lt;/p&gt;&lt;hr size=&quot;1&quot; style=&quot;border-style:solid;&quot;&gt;&lt;p style=&quot;margin:0px;margin-left:4px;&quot;&gt;+ process(req: Requestl, res: Response) : Map&amp;lt;String, String&amp;gt;&lt;br&gt;&lt;/p&gt;&lt;p style=&quot;margin:0px;margin-left:4px;&quot;&gt;+ index() : Map&amp;lt;String, String&amp;gt;&lt;/p&gt;&lt;p style=&quot;margin:0px;margin-left:4px;&quot;&gt;+ start(startRequest: JsonNode) : Map&amp;lt;String, String&amp;gt;&lt;/p&gt;&lt;p style=&quot;margin:0px;margin-left:4px;&quot;&gt;+ move(moveRequest: JsonNode) : Map&amp;lt;String, String&amp;gt;&lt;/p&gt;&lt;p style=&quot;margin:0px;margin-left:4px;&quot;&gt;+ end(endRequest: JsonNode) : Map&amp;lt;String, String&amp;gt;&lt;/p&gt;&lt;p style=&quot;margin:0px;margin-left:4px;&quot;&gt;-avoidMyNeck(head: JsonNode, body: JsonNode, possibleMoves: ArrayList&amp;lt;String&amp;gt;) : void&lt;/p&gt;&lt;p style=&quot;margin:0px;margin-left:4px;&quot;&gt;&lt;span style=&quot;background-color: initial;&quot;&gt;-avoidBorders(head: JsonNode, possibleMoves: ArrayList&amp;lt;String&amp;gt;, height: int, width: int) : void&lt;/span&gt;&lt;/p&gt;&lt;p style=&quot;margin: 0px 0px 0px 4px;&quot;&gt;-avoidBody(head: JsonNode, body: JsonNode, possibleMoves: ArrayList&amp;lt;String&amp;gt;) : void&lt;/p&gt;&lt;p style=&quot;margin: 0px 0px 0px 4px;&quot;&gt;-avoidOthers(head: JsonNode, possibleMoves: ArrayList&amp;lt;String&amp;gt;, moveRequest: JsonNode) : void&lt;/p&gt;&lt;p style=&quot;margin: 0px 0px 0px 4px;&quot;&gt;-avoidHeadToHead(myHead: JsonNode, possibleMoves: ArrayList&amp;lt;String&amp;gt;, snakes: JsonNode, myLength: int) : void&lt;/p&gt;&lt;p style=&quot;margin: 0px 0px 0px 4px;&quot;&gt;-moveTowardsFood(head: JsonNode, possibleMoves: ArrayList&amp;lt;String&amp;gt;, foodlist: JsonNode) : String&lt;/p&gt;&lt;p style=&quot;margin: 0px 0px 0px 4px;&quot;&gt;&lt;br&gt;&lt;/p&gt;" style="verticalAlign=top;align=left;overflow=fill;html=1;whiteSpace=wrap;" vertex="1" parent="1">
          <mxGeometry x="140" y="430" width="630" height="250" as="geometry" />
        </mxCell>
        <mxCell id="tBvIUzbLb-7MjJB4aprN-3" value="Use" style="endArrow=open;endSize=12;dashed=1;html=1;rounded=0;exitX=0.467;exitY=0.988;exitDx=0;exitDy=0;exitPerimeter=0;entryX=0.5;entryY=0;entryDx=0;entryDy=0;" edge="1" parent="1" source="tBvIUzbLb-7MjJB4aprN-1" target="tBvIUzbLb-7MjJB4aprN-2">
          <mxGeometry width="160" relative="1" as="geometry">
            <mxPoint x="340" y="480" as="sourcePoint" />
            <mxPoint x="500" y="480" as="targetPoint" />
          </mxGeometry>
        </mxCell>
      </root>
    </mxGraphModel>
  </diagram>
</mxfile>
